<svg xmlns="http://www.w3.org/2000/svg" xmlns:xlink="http://www.w3.org/1999/xlink" zoomAndPan="magnify" preserveAspectRatio="xMidYMid meet" version="1.0" viewBox="75.34 170.53 226.04 34.45"><defs><g/></defs><g fill="#ffffff" fill-opacity="1"><g transform="translate(72.181824, 204.374987)"><g><path d="M 3.15625 0 L 3.15625 -24.140625 L 9.5 -24.140625 L 9.5 -20.90625 C 10.425781 -22.007812 11.582031 -22.925781 12.96875 -23.65625 C 14.363281 -24.382812 15.78125 -24.75 17.21875 -24.75 L 17.21875 -18.5625 C 16.769531 -18.65625 16.179688 -18.703125 15.453125 -18.703125 C 14.378906 -18.703125 13.25 -18.425781 12.0625 -17.875 C 10.875 -17.332031 10.019531 -16.6875 9.5 -15.9375 L 9.5 0 Z M 3.15625 0 "/></g></g></g><g fill="#ffffff" fill-opacity="1"><g transform="translate(90.172175, 204.374987)"><g><path d="M 1.609375 -12.109375 C 1.609375 -14.429688 2.132812 -16.550781 3.1875 -18.46875 C 4.25 -20.394531 5.738281 -21.921875 7.65625 -23.046875 C 9.582031 -24.179688 11.734375 -24.75 14.109375 -24.75 C 17.722656 -24.75 20.640625 -23.523438 22.859375 -21.078125 C 25.085938 -18.628906 26.203125 -15.4375 26.203125 -11.5 L 26.203125 -10.015625 L 8.25 -10.015625 C 8.476562 -8.453125 9.203125 -7.15625 10.421875 -6.125 C 11.640625 -5.101562 13.234375 -4.59375 15.203125 -4.59375 C 16.285156 -4.59375 17.441406 -4.804688 18.671875 -5.234375 C 19.898438 -5.671875 20.878906 -6.242188 21.609375 -6.953125 L 24.4375 -2.765625 C 23.269531 -1.679688 21.800781 -0.847656 20.03125 -0.265625 C 18.269531 0.316406 16.425781 0.609375 14.5 0.609375 C 10.769531 0.609375 7.6875 -0.554688 5.25 -2.890625 C 2.820312 -5.222656 1.609375 -8.296875 1.609375 -12.109375 Z M 8.203125 -14.40625 L 20.09375 -14.40625 C 20.039062 -15.019531 19.890625 -15.613281 19.640625 -16.1875 C 19.398438 -16.757812 19.054688 -17.304688 18.609375 -17.828125 C 18.160156 -18.347656 17.546875 -18.765625 16.765625 -19.078125 C 15.984375 -19.398438 15.097656 -19.5625 14.109375 -19.5625 C 13.171875 -19.5625 12.328125 -19.40625 11.578125 -19.09375 C 10.828125 -18.78125 10.222656 -18.367188 9.765625 -17.859375 C 9.304688 -17.347656 8.945312 -16.800781 8.6875 -16.21875 C 8.425781 -15.644531 8.265625 -15.039062 8.203125 -14.40625 Z M 8.203125 -14.40625 "/></g></g></g><g fill="#ffffff" fill-opacity="1"><g transform="translate(117.804574, 204.374987)"><g><path d="M 0.609375 -18.609375 L 0.609375 -24.140625 L 4.59375 -24.140625 L 4.59375 -25.140625 C 4.59375 -27.847656 5.328125 -29.972656 6.796875 -31.515625 C 8.273438 -33.066406 10.242188 -33.84375 12.703125 -33.84375 C 15.566406 -33.84375 17.664062 -33.078125 19 -31.546875 L 16.609375 -27.703125 C 15.921875 -28.335938 15.03125 -28.65625 13.9375 -28.65625 C 13.007812 -28.65625 12.28125 -28.351562 11.75 -27.75 C 11.226562 -27.15625 10.96875 -26.285156 10.96875 -25.140625 L 10.96875 -24.140625 L 15.84375 -24.140625 L 15.84375 -18.609375 L 10.96875 -18.609375 L 10.96875 0 L 4.59375 0 L 4.59375 -18.609375 Z M 0.609375 -18.609375 "/></g></g></g><g fill="#ffffff" fill-opacity="1"><g transform="translate(134.135029, 204.374987)"><g><path d="M 3.15625 0 L 3.15625 -24.140625 L 9.5 -24.140625 L 9.5 -20.90625 C 10.425781 -22.007812 11.582031 -22.925781 12.96875 -23.65625 C 14.363281 -24.382812 15.78125 -24.75 17.21875 -24.75 L 17.21875 -18.5625 C 16.769531 -18.65625 16.179688 -18.703125 15.453125 -18.703125 C 14.378906 -18.703125 13.25 -18.425781 12.0625 -17.875 C 10.875 -17.332031 10.019531 -16.6875 9.5 -15.9375 L 9.5 0 Z M 3.15625 0 "/></g></g></g><g fill="#ffffff" fill-opacity="1"><g transform="translate(152.12538, 204.374987)"><g><path d="M 1.609375 -12.109375 C 1.609375 -14.429688 2.132812 -16.550781 3.1875 -18.46875 C 4.25 -20.394531 5.738281 -21.921875 7.65625 -23.046875 C 9.582031 -24.179688 11.734375 -24.75 14.109375 -24.75 C 17.722656 -24.75 20.640625 -23.523438 22.859375 -21.078125 C 25.085938 -18.628906 26.203125 -15.4375 26.203125 -11.5 L 26.203125 -10.015625 L 8.25 -10.015625 C 8.476562 -8.453125 9.203125 -7.15625 10.421875 -6.125 C 11.640625 -5.101562 13.234375 -4.59375 15.203125 -4.59375 C 16.285156 -4.59375 17.441406 -4.804688 18.671875 -5.234375 C 19.898438 -5.671875 20.878906 -6.242188 21.609375 -6.953125 L 24.4375 -2.765625 C 23.269531 -1.679688 21.800781 -0.847656 20.03125 -0.265625 C 18.269531 0.316406 16.425781 0.609375 14.5 0.609375 C 10.769531 0.609375 7.6875 -0.554688 5.25 -2.890625 C 2.820312 -5.222656 1.609375 -8.296875 1.609375 -12.109375 Z M 8.203125 -14.40625 L 20.09375 -14.40625 C 20.039062 -15.019531 19.890625 -15.613281 19.640625 -16.1875 C 19.398438 -16.757812 19.054688 -17.304688 18.609375 -17.828125 C 18.160156 -18.347656 17.546875 -18.765625 16.765625 -19.078125 C 15.984375 -19.398438 15.097656 -19.5625 14.109375 -19.5625 C 13.171875 -19.5625 12.328125 -19.40625 11.578125 -19.09375 C 10.828125 -18.78125 10.222656 -18.367188 9.765625 -17.859375 C 9.304688 -17.347656 8.945312 -16.800781 8.6875 -16.21875 C 8.425781 -15.644531 8.265625 -15.039062 8.203125 -14.40625 Z M 8.203125 -14.40625 "/></g></g></g><g fill="#ffffff" fill-opacity="1"><g transform="translate(179.757779, 204.374987)"><g><path d="M 1.046875 -3.15625 L 3.8125 -7.734375 C 4.75 -6.835938 6.007812 -6.054688 7.59375 -5.390625 C 9.1875 -4.722656 10.707031 -4.390625 12.15625 -4.390625 C 13.488281 -4.390625 14.5 -4.617188 15.1875 -5.078125 C 15.875 -5.546875 16.21875 -6.171875 16.21875 -6.953125 C 16.21875 -7.472656 15.953125 -7.90625 15.421875 -8.25 C 14.890625 -8.59375 14.203125 -8.859375 13.359375 -9.046875 C 12.523438 -9.242188 11.597656 -9.4375 10.578125 -9.625 C 9.566406 -9.8125 8.550781 -10.066406 7.53125 -10.390625 C 6.507812 -10.722656 5.578125 -11.140625 4.734375 -11.640625 C 3.898438 -12.148438 3.21875 -12.867188 2.6875 -13.796875 C 2.164062 -14.734375 1.90625 -15.847656 1.90625 -17.140625 C 1.90625 -19.273438 2.78125 -21.078125 4.53125 -22.546875 C 6.289062 -24.015625 8.710938 -24.75 11.796875 -24.75 C 15.503906 -24.75 18.742188 -23.648438 21.515625 -21.453125 L 18.953125 -16.9375 C 18.179688 -17.738281 17.148438 -18.40625 15.859375 -18.9375 C 14.566406 -19.476562 13.210938 -19.75 11.796875 -19.75 C 10.648438 -19.75 9.734375 -19.53125 9.046875 -19.09375 C 8.359375 -18.65625 8.015625 -18.09375 8.015625 -17.40625 C 8.015625 -16.976562 8.21875 -16.625 8.625 -16.34375 C 9.03125 -16.0625 9.566406 -15.84375 10.234375 -15.6875 C 10.910156 -15.53125 11.675781 -15.351562 12.53125 -15.15625 C 13.382812 -14.96875 14.265625 -14.78125 15.171875 -14.59375 C 16.078125 -14.40625 16.957031 -14.109375 17.8125 -13.703125 C 18.664062 -13.304688 19.429688 -12.847656 20.109375 -12.328125 C 20.785156 -11.804688 21.328125 -11.097656 21.734375 -10.203125 C 22.140625 -9.304688 22.34375 -8.273438 22.34375 -7.109375 C 22.34375 -4.828125 21.410156 -2.96875 19.546875 -1.53125 C 17.679688 -0.101562 15.113281 0.609375 11.84375 0.609375 C 9.738281 0.609375 7.726562 0.273438 5.8125 -0.390625 C 3.90625 -1.054688 2.316406 -1.976562 1.046875 -3.15625 Z M 1.046875 -3.15625 "/></g></g></g><g fill="#ffffff" fill-opacity="1"><g transform="translate(203.582179, 204.374987)"><g><path d="M 3.15625 0 L 3.15625 -33.34375 L 9.546875 -33.34375 L 9.546875 -21.046875 C 10.421875 -22.066406 11.59375 -22.9375 13.0625 -23.65625 C 14.53125 -24.382812 16.175781 -24.75 18 -24.75 C 20.601562 -24.75 22.5625 -24.082031 23.875 -22.75 C 25.195312 -21.414062 25.859375 -19.546875 25.859375 -17.140625 L 25.859375 0 L 19.5 0 L 19.5 -14.703125 C 19.5 -16.296875 19.117188 -17.425781 18.359375 -18.09375 C 17.597656 -18.757812 16.492188 -19.09375 15.046875 -19.09375 C 13.890625 -19.09375 12.828125 -18.820312 11.859375 -18.28125 C 10.898438 -17.75 10.128906 -17.09375 9.546875 -16.3125 L 9.546875 0 Z M 3.15625 0 "/></g></g></g><g fill="#000000" fill-opacity="1"><g transform="translate(232.552907, 204.374987)"><g><path d="M 3.15625 0 L 3.15625 -24.140625 L 9.5 -24.140625 L 9.5 -21.046875 C 10.144531 -21.910156 11.203125 -22.742188 12.671875 -23.546875 C 14.148438 -24.347656 15.726562 -24.75 17.40625 -24.75 C 19.144531 -24.75 20.582031 -24.367188 21.71875 -23.609375 C 22.863281 -22.859375 23.65625 -21.789062 24.09375 -20.40625 C 24.863281 -21.582031 26.003906 -22.597656 27.515625 -23.453125 C 29.023438 -24.316406 30.648438 -24.75 32.390625 -24.75 C 34.660156 -24.75 36.410156 -24.140625 37.640625 -22.921875 C 38.878906 -21.703125 39.5 -19.878906 39.5 -17.453125 L 39.5 0 L 33.109375 0 L 33.109375 -15.265625 C 33.109375 -16.453125 32.8125 -17.382812 32.21875 -18.0625 C 31.632812 -18.75 30.726562 -19.09375 29.5 -19.09375 C 28.46875 -19.09375 27.507812 -18.816406 26.625 -18.265625 C 25.738281 -17.710938 25.035156 -17.0625 24.515625 -16.3125 L 24.515625 0 L 18.09375 0 L 18.09375 -15.265625 C 18.09375 -17.816406 16.894531 -19.09375 14.5 -19.09375 C 13.488281 -19.09375 12.539062 -18.816406 11.65625 -18.265625 C 10.769531 -17.710938 10.050781 -17.0625 9.5 -16.3125 L 9.5 0 Z M 3.15625 0 "/></g></g></g><g fill="#000000" fill-opacity="1"><g transform="translate(275.173197, 204.374987)"><g><path d="M 1.609375 -12.109375 C 1.609375 -14.429688 2.132812 -16.550781 3.1875 -18.46875 C 4.25 -20.394531 5.738281 -21.921875 7.65625 -23.046875 C 9.582031 -24.179688 11.734375 -24.75 14.109375 -24.75 C 17.722656 -24.75 20.640625 -23.523438 22.859375 -21.078125 C 25.085938 -18.628906 26.203125 -15.4375 26.203125 -11.5 L 26.203125 -10.015625 L 8.25 -10.015625 C 8.476562 -8.453125 9.203125 -7.15625 10.421875 -6.125 C 11.640625 -5.101562 13.234375 -4.59375 15.203125 -4.59375 C 16.285156 -4.59375 17.441406 -4.804688 18.671875 -5.234375 C 19.898438 -5.671875 20.878906 -6.242188 21.609375 -6.953125 L 24.4375 -2.765625 C 23.269531 -1.679688 21.800781 -0.847656 20.03125 -0.265625 C 18.269531 0.316406 16.425781 0.609375 14.5 0.609375 C 10.769531 0.609375 7.6875 -0.554688 5.25 -2.890625 C 2.820312 -5.222656 1.609375 -8.296875 1.609375 -12.109375 Z M 8.203125 -14.40625 L 20.09375 -14.40625 C 20.039062 -15.019531 19.890625 -15.613281 19.640625 -16.1875 C 19.398438 -16.757812 19.054688 -17.304688 18.609375 -17.828125 C 18.160156 -18.347656 17.546875 -18.765625 16.765625 -19.078125 C 15.984375 -19.398438 15.097656 -19.5625 14.109375 -19.5625 C 13.171875 -19.5625 12.328125 -19.40625 11.578125 -19.09375 C 10.828125 -18.78125 10.222656 -18.367188 9.765625 -17.859375 C 9.304688 -17.347656 8.945312 -16.800781 8.6875 -16.21875 C 8.425781 -15.644531 8.265625 -15.039062 8.203125 -14.40625 Z M 8.203125 -14.40625 "/></g></g></g></svg>